<svg width="16" height="16" viewBox="0 0 16 16" fill="none" xmlns="http://www.w3.org/2000/svg">
<path d="M2.56267 12.2618C2.56267 12.2618 2.46401 11.9378 2.29067 11.7623C2.11734 11.5868 0.781328 10.2342 0.584 10.0344C0.386672 9.83458 0 9.44581 0 8.87882C0 8.31185 0.472 7.90686 1.04266 7.67467C1.61333 7.44247 10.8933 3.63022 11.5813 3.33863C12.2693 3.04704 13.2587 2.59886 13.7067 2.38287C14.1547 2.16687 15.424 1.55872 15.466 1.53578C15.508 1.51283 15.5307 1.5 15.5507 1.5C15.5707 1.5 15.5893 1.51755 15.5893 1.5405C15.5893 1.56344 15.5747 1.59517 15.57 1.6107C15.5653 1.62623 15.1813 2.78245 14.8773 3.17664C14.5733 3.57082 14.424 3.73821 12.968 4.25659C11.512 4.77497 1.78932 8.23085 1.54399 8.32804C1.29866 8.42524 0.743992 8.59803 0.743992 9.01382C0.743992 9.34861 1.07466 9.6078 1.17066 9.69419C1.26666 9.78059 3.87999 12.2618 3.87999 12.2618L2.56267 12.2618Z" fill="#FF0000"/>
<path d="M1.41596 9.57945C1.41596 9.57945 1.17862 9.35671 1.14662 9.32431C1.11462 9.29191 1.04529 9.17043 1.04529 9.08403C1.04529 8.99763 1.06129 8.78973 1.42129 8.67634C1.78129 8.56294 10.184 5.76315 10.6426 5.61735C11.1013 5.47156 13.81 4.5617 14.292 4.343C14.394 4.29846 14.412 4.28766 14.428 4.28766C14.444 4.28766 14.4646 4.29778 14.4646 4.32275C14.4646 4.34773 14.4533 4.36663 14.4446 4.38081C14.436 4.39498 13.972 5.35951 13.7 5.66325C13.428 5.96699 13.184 6.18163 12.688 6.30718C12.192 6.43272 4.45996 8.53864 4.40996 8.55282C4.35996 8.56699 4.30196 8.61356 4.30196 8.67634C4.30196 8.77961 4.38596 8.78771 4.38596 8.78771L1.41596 9.57945Z" fill="#FF0000"/>
<path d="M1.58801 9.73335L2.27201 10.3773L5.82001 9.70095C5.82001 9.70095 5.72801 9.64223 5.72801 9.57439C5.72801 9.50656 5.78201 9.46201 5.84701 9.44885C5.91201 9.43569 11.056 8.42526 11.376 8.36856C11.696 8.31186 12.1173 8.21736 12.4613 7.79618C12.8053 7.375 13.139 6.8124 13.15 6.79519C13.161 6.77798 13.165 6.76785 13.165 6.75773C13.165 6.7476 13.159 6.72229 13.133 6.72229C13.107 6.72229 13.093 6.72836 13.067 6.73849C13.041 6.74861 1.58801 9.73335 1.58801 9.73335Z" fill="#FF0000"/>
<path d="M11.648 8.78569C11.6335 8.78903 2.43469 10.5339 2.43469 10.5339L3.23203 11.2804L7.48671 10.7377C7.48671 10.7377 7.40671 10.708 7.40671 10.6243C7.40671 10.5406 7.48537 10.5096 7.53071 10.5015C7.57604 10.4934 9.72004 10.1748 9.97204 10.137C10.224 10.0992 10.6387 10.0114 10.988 9.63884C11.3374 9.26625 11.6814 8.85317 11.6947 8.83697C11.708 8.82077 11.71 8.81066 11.71 8.80256C11.71 8.79446 11.7 8.77759 11.68 8.77759C11.6747 8.77759 11.6627 8.78232 11.648 8.78569Z" fill="#FF0000"/>
<path d="M3.42139 11.4545L4.27472 12.2645H9.90672L7.80005 10.9362L3.42139 11.4545Z" fill="#FF0000"/>
<path d="M3.12974 12.8801C3.15374 12.8774 3.3564 12.8477 3.3564 12.8477V12.6074H1.91731V12.8477C1.91731 12.8477 2.11998 12.8774 2.14398 12.8801C2.16798 12.8828 2.27464 12.907 2.27464 13.0285V13.3337H1.1644V13.0285C1.1644 12.907 1.27107 12.8828 1.29507 12.8801C1.31907 12.8774 1.52173 12.8477 1.52173 12.8477V12.6074H0.0826416V12.8477C0.0826416 12.8477 0.285306 12.8774 0.309306 12.8801C0.333306 12.8828 0.43997 12.907 0.43997 13.0285V14.0107C0.43997 14.1322 0.333306 14.1565 0.309306 14.1592C0.285306 14.1619 0.0826416 14.1847 0.0826416 14.1847V14.425H1.52173V14.1847C1.52173 14.1847 1.31907 14.1619 1.29507 14.1592C1.27107 14.1565 1.1644 14.1322 1.1644 14.0107V13.7035H2.27464V14.0107C2.27464 14.1322 2.16798 14.1565 2.14398 14.1592C2.11998 14.1619 1.91731 14.1847 1.91731 14.1847V14.425H3.3564V14.1847C3.3564 14.1847 3.15374 14.1619 3.12974 14.1592C3.10574 14.1565 2.99907 14.1322 2.99907 14.0107V13.0285C2.99907 12.907 3.10574 12.8828 3.12974 12.8801Z" fill="#FF0000"/>
<path d="M4.90134 12.548C3.97334 12.548 3.43201 12.889 3.43201 13.5209C3.43201 14.1529 3.97334 14.4939 4.90134 14.4939C5.82934 14.4939 6.37068 14.1529 6.37068 13.5209C6.37068 12.889 5.82934 12.548 4.90134 12.548ZM4.90134 14.1581C4.72001 14.1581 4.26401 14.1635 4.26401 13.5209C4.26401 12.8784 4.72001 12.8837 4.90134 12.8837C5.08268 12.8837 5.53868 12.8784 5.53868 13.5209C5.53868 14.1635 5.08268 14.1581 4.90134 14.1581Z" fill="#FF0000"/>
<path d="M8.47329 12.6047H9.62929V12.8477C9.62929 12.8477 9.42795 12.8679 9.38895 12.873C9.34995 12.878 9.26395 12.9175 9.26395 13.0289C9.26395 13.1403 9.26395 14.3562 9.26395 14.4271C9.26395 14.4271 8.41329 14.4271 8.37062 14.4271C8.32795 14.4271 8.26595 14.415 8.22995 14.3704C8.19395 14.3259 7.25195 13.0785 7.25195 13.0785C7.25195 13.1899 7.25195 13.9553 7.25195 14.0262C7.25195 14.0971 7.32095 14.1446 7.37195 14.1517C7.42295 14.1588 7.61595 14.1835 7.61595 14.1835V14.4271L6.45862 14.4271V14.1841C6.45862 14.1841 6.65995 14.1639 6.69895 14.1588C6.73795 14.1537 6.82395 14.1143 6.82395 14.0029C6.82395 13.8915 6.82395 13.0785 6.82395 13.0076C6.82395 12.9368 6.75495 12.8892 6.70395 12.8821C6.65295 12.875 6.45995 12.8537 6.45995 12.8537V12.6047C6.45995 12.6047 7.67462 12.6047 7.71729 12.6047C7.75996 12.6047 7.82195 12.6168 7.85795 12.6614C7.89395 12.7059 8.83595 13.9533 8.83595 13.9533C8.83595 13.8419 8.83595 13.0765 8.83595 13.0056C8.83595 12.9347 8.76695 12.8872 8.71595 12.8801C8.66495 12.873 8.47329 12.8517 8.47329 12.8517" fill="#FF0000"/>
<path d="M11.6134 12.6047C11.2646 12.6047 9.75073 12.6047 9.75073 12.6047V12.8537C9.75073 12.8537 9.94373 12.875 9.99473 12.8821C10.0457 12.8892 10.1147 12.9368 10.1147 13.0076C10.1147 13.0785 10.1147 13.8915 10.1147 14.0029C10.1147 14.1143 10.0287 14.1537 9.98973 14.1588C9.95073 14.1639 9.74939 14.1841 9.74939 14.1841V14.4271L11.6134 14.4271C12.2168 14.4271 12.7261 14.1436 12.7261 13.5078C12.7261 12.872 12.1521 12.6047 11.6134 12.6047ZM11.4321 14.0815H10.8134V12.9557C10.8134 12.9557 11.2054 12.9557 11.4347 12.9557C11.6641 12.9557 11.8934 13.034 11.8934 13.5091C11.8934 13.9843 11.7121 14.0815 11.4321 14.0815Z" fill="#FF0000"/>
<path d="M15.744 14.1567C15.651 14.1466 15.603 14.0565 15.591 14.0383C15.579 14.02 14.741 12.7251 14.708 12.6765C14.675 12.6279 14.609 12.6077 14.575 12.6077C14.541 12.6077 13.184 12.6077 13.184 12.6077V12.8547C13.184 12.8547 13.479 12.8841 13.516 12.8881C13.553 12.8922 13.591 12.961 13.591 12.9843C13.591 13.0076 13.578 13.0299 13.57 13.044C13.562 13.0582 12.971 14.0352 12.94 14.0838C12.909 14.1324 12.857 14.1547 12.819 14.1577C12.781 14.1608 12.584 14.1787 12.584 14.1787V14.4271H13.7306V14.1868L13.4987 14.1571C13.4467 14.1476 13.432 14.0882 13.432 14.0734C13.432 14.0585 13.44 14.0356 13.4547 14.0126C13.458 14.0074 13.4915 13.9526 13.5413 13.8709H14.6481C14.7014 13.9526 14.7371 14.0074 14.7404 14.0126C14.7551 14.0356 14.7631 14.0585 14.7631 14.0734C14.7631 14.0882 14.7484 14.1476 14.6964 14.1571L14.432 14.1787V14.4271H15.9866V14.1868C15.9866 14.1868 15.837 14.1669 15.744 14.1567ZM13.7356 13.5523C13.9002 13.2821 14.076 12.9934 14.076 12.9934C14.076 12.9934 14.2643 13.2821 14.4404 13.5523H13.7356Z" fill="#FF0000"/>
</svg>
