<svg width="16" height="16" viewBox="0 0 16 16" fill="none" xmlns="http://www.w3.org/2000/svg">
<g clip-path="url(#clip0_51_150)">
<path d="M15.1508 1.7602C14.708 1.374 13.8193 1.07822 13.0239 0.779662C12.798 0.694853 12.225 0.532017 11.6319 0.401975C10.9871 0.260586 10.3186 0.154164 10.0466 0.130044L8.74855 0.024257C8.67166 0.0191606 7.96134 0.0208976 7.86176 0.0187758C7.42845 0.00956061 6.00132 0.0485326 4.29273 0.431389C3.89495 0.520524 3.47541 0.644877 3.0365 0.779662C2.51769 0.938982 2.08872 1.09673 1.73405 1.25184C1.37295 1.40978 1.08888 1.56535 0.865441 1.76019C0.0834735 2.44207 0.0440674 3.27928 0.0440674 3.94657C0.0440674 3.94657 0.0461414 4.33608 0.173406 5.08302C0.253068 5.55057 0.375059 6.15815 0.597055 6.8979C0.75115 7.41137 0.933982 8.00308 1.21632 8.63712C1.37962 9.00382 1.55601 9.38543 1.7702 9.79183C1.96517 10.1617 2.17439 10.5509 2.41378 10.9299C2.86272 11.6407 3.37891 12.3523 3.92171 13.0078C4.21066 13.3567 4.51746 13.6537 4.82601 13.9571C5.15535 14.2811 5.49768 14.6081 5.81134 14.871C6.49007 15.4401 6.9979 15.844 7.63874 15.9516C7.79893 15.9786 8.26029 15.9696 8.4001 15.9469C9.01306 15.8474 9.62025 15.3782 10.2712 14.7982C10.8747 14.2605 11.4792 13.6977 12.0946 12.987C13.253 11.649 14.2348 9.91896 14.8 8.6267C15.4673 7.10082 15.7001 5.84242 15.8241 5.01627L15.9722 3.94657C15.9722 3.27928 15.9328 2.44207 15.1508 1.7602Z" fill="white"/>
<path d="M9.69155 7.13845C7.42449 7.56488 6.18891 8.07972 6.18891 8.07972C5.23464 8.44375 4.02133 9.04942 3.37576 9.88428C2.922 10.4711 3.09966 10.9118 3.26607 11.2446C3.60922 11.7384 3.98268 12.219 4.36543 12.6812C4.61791 12.9861 5.23238 13.6003 5.23238 13.6003C5.50681 13.8702 5.86316 14.2147 6.18542 14.4848C6.82913 15.0245 7.22778 15.3505 7.73659 15.429C7.95402 15.4626 8.31702 15.4182 8.34874 15.4135C8.82669 15.336 9.34205 14.8821 9.90661 14.4021C10.5754 13.8336 11.0912 13.3067 11.6586 12.6514C12.0929 12.1498 12.4996 11.6125 12.8654 11.049C13.4688 10.1193 13.9605 9.15406 14.2796 8.42441C14.5756 7.74752 14.7831 7.12706 14.9334 6.56912C14.2433 6.56358 11.841 6.73413 9.69155 7.13845ZM14.7687 2.14979C14.4602 1.88076 13.7844 1.61891 13.159 1.3879C13.057 1.35022 12.9185 1.31126 12.8158 1.27271C12.6444 1.2084 12.1092 1.05147 11.5045 0.918871C10.8436 0.773956 10.2124 0.677779 9.99391 0.658402L8.71327 0.553925C8.65397 0.551731 8.35498 0.551158 8.17545 0.550815L7.84912 0.549338L7.74384 0.54834C7.48691 0.54834 6.11927 0.557191 4.42295 0.937291C4.02673 1.02607 3.57853 1.15757 3.19985 1.27385C2.72475 1.41975 2.31861 1.58122 1.971 1.73325C1.63021 1.88229 1.40715 2.00036 1.24772 2.13939C0.656922 2.65457 0.585104 3.29222 0.584961 3.9436C0.585336 3.96587 0.615365 4.33041 0.729237 4.99884C0.795219 5.38613 0.898423 5.98937 1.12771 6.75341C1.20015 6.99478 1.27893 7.24848 1.36832 7.50944C1.6945 7.14309 2.67234 6.62128 5.3351 6.3022C7.55687 6.03595 10.3617 5.97334 12.2011 5.94185L15.0922 5.91227L15.0974 5.88796C15.1713 5.54086 15.2464 5.22481 15.2889 4.9419C15.3732 4.37988 15.397 4.01745 15.4094 3.91658C15.4077 3.27488 15.3513 2.65784 14.7687 2.14979Z" fill="#E32431"/>
<path d="M13.3009 2.85677H14.1503L13.6943 4.88147H12.8412L13.3009 2.85677ZM11.2232 2.85677H13.1281L13.0095 3.39414H12.4772L12.1462 4.88147H11.2894L11.6314 3.39762H11.0982L11.2232 2.85677ZM10.1494 4.88147H11.032L10.7966 2.85676H9.68608L8.54242 4.88147H9.35879L9.51694 4.55558H10.1456L10.1494 4.88147ZM9.75417 4.06674L10.131 3.29014L10.14 4.06674H9.75417ZM8.09748 3.5987H8.86972C8.86972 3.5987 9.13815 2.79089 8.05702 2.79089C6.97588 2.79089 6.74055 3.69923 6.74055 3.69923C6.74055 3.69923 6.29927 4.95774 7.57529 4.93347C7.84337 4.92838 8.15264 4.88147 8.42728 4.65833C8.6967 4.43943 8.75204 4.13261 8.75204 4.13261H7.96142C7.96142 4.13261 7.89523 4.40649 7.69666 4.41343C7.49808 4.42037 7.50174 4.15341 7.59737 3.79631C7.69299 3.43922 7.77755 3.32135 7.95407 3.31787C8.13058 3.3144 8.11218 3.48429 8.09748 3.5987ZM4.67021 2.85677H5.52703L5.22366 4.17682C5.22366 4.17682 5.17401 4.39004 5.34225 4.39004C5.51049 4.39004 5.55737 4.22102 5.57116 4.16642L5.86351 2.85677H6.71573L6.39856 4.26782C6.39856 4.26782 6.28548 4.92376 5.27054 4.93382C4.2556 4.94387 4.33558 4.41083 4.35489 4.25482L4.67021 2.85677ZM3.44566 2.85677H2.3057L1.85339 4.88148H2.97498C2.97498 4.88148 4.00109 4.91199 4.2363 3.84833C4.45325 2.86717 3.55966 2.85677 3.44566 2.85677ZM3.38581 3.62991C3.37983 3.85739 3.27911 4.14146 3.20297 4.25743C3.05955 4.47584 2.79111 4.4169 2.79111 4.4169L3.03749 3.31441C3.17696 3.29406 3.2692 3.31983 3.32679 3.37446C3.38883 3.43331 3.38856 3.52567 3.38581 3.62991Z" fill="white"/>
</g>
<defs>
<clipPath id="clip0_51_150">
<rect width="16" height="16" fill="white"/>
</clipPath>
</defs>
</svg>
