<svg width="16" height="16" viewBox="0 0 16 16" fill="none" xmlns="http://www.w3.org/2000/svg">
<path d="M7.99974 0C3.58178 0 0 3.5814 0 8C0 12.4178 3.58178 16 7.99974 16C12.418 16 16 12.4178 16 8C16 3.5814 12.4182 0 7.99974 0ZM7.99974 15.0969C4.0801 15.0969 0.902087 11.9193 0.902087 8C0.902087 4.07997 4.07984 0.902579 7.99974 0.902579C11.9196 0.902579 15.0974 4.07997 15.0974 8C15.0974 11.9193 11.9196 15.0969 7.99974 15.0969Z" fill="#101010"/>
<path d="M13.8145 11.2217L12.653 9.86532C12.6386 9.84891 12.6217 9.83484 12.6022 9.82338C12.5428 9.78952 12.473 9.78874 12.4154 9.81661C12.238 9.90049 12.0236 9.89892 11.8407 9.79343C11.6779 9.70017 11.5743 9.54284 11.542 9.37196C11.4602 8.93669 11.1968 8.53867 10.7834 8.30033L10.2632 8.00025L13.2206 6.29304L12.8546 5.65876L9.53121 7.57722L9.13187 7.34696V6.88564L12.455 4.96691L12.089 4.33289L9.13187 6.04037V5.43995C9.13187 4.96248 8.91879 4.53503 8.58301 4.24693C8.45094 4.13388 8.36706 3.96561 8.36706 3.7778C8.36706 3.56654 8.47283 3.37952 8.63459 3.26803C8.68747 3.23208 8.7216 3.17113 8.7216 3.10262C8.7216 3.07996 8.71795 3.05808 8.71118 3.03776L8.11751 1.35399C8.1011 1.30476 8.05473 1.26959 8.00029 1.26959C7.94611 1.26959 7.89974 1.30476 7.88333 1.35399L7.28993 3.03776C7.28289 3.05808 7.27925 3.07996 7.27925 3.10262C7.27925 3.17113 7.31363 3.23208 7.36599 3.26803C7.5275 3.37952 7.63378 3.56654 7.63378 3.7778C7.63378 3.96561 7.55016 4.13388 7.41757 4.24693C7.08153 4.53503 6.86897 4.96274 6.86897 5.43995V6.04037L3.91159 4.33289L3.5456 4.96691L6.86897 6.88564V7.34722L6.46963 7.57722L3.14626 5.65876L2.78053 6.29304L5.73791 8.00025L5.21744 8.30033C4.80404 8.53867 4.54042 8.93669 4.45889 9.37196C4.42659 9.54284 4.32317 9.70017 4.16036 9.79343C3.97724 9.89892 3.76311 9.90049 3.58546 9.81661C3.52763 9.789 3.45807 9.78952 3.39894 9.82338C3.37915 9.83484 3.36195 9.84917 3.34815 9.86532L2.18635 11.2211C2.15222 11.26 2.14493 11.3173 2.17202 11.3652C2.19911 11.4118 2.25277 11.4345 2.30331 11.4248L4.05851 11.0961C4.07961 11.0919 4.10071 11.0844 4.11999 11.0732C4.17964 11.0385 4.21455 10.9789 4.21976 10.9148C4.23565 10.7194 4.34453 10.534 4.5274 10.4285C4.68969 10.3352 4.8775 10.3233 5.04187 10.3808C5.45944 10.5277 5.93588 10.4983 6.34929 10.2592L6.86949 9.95962V13.374H7.60148V9.53659L8.00107 9.30606L8.40041 9.53659V13.3738H9.13265V9.95936L9.6526 10.2589C10.066 10.498 10.5427 10.5275 10.9603 10.3806C11.1241 10.3227 11.3122 10.3347 11.4747 10.4282C11.6576 10.5337 11.7662 10.7192 11.7821 10.9146C11.7871 10.9786 11.8222 11.0385 11.8814 11.0729C11.9009 11.0841 11.922 11.0917 11.9431 11.0958L13.6981 11.4246C13.7489 11.4342 13.8023 11.4116 13.8296 11.3649C13.8559 11.3173 13.8484 11.2602 13.8145 11.2217ZM6.86871 9.11434L5.89264 9.67751C5.70144 9.78796 5.45736 9.72231 5.34717 9.53138C5.23698 9.33992 5.30237 9.09585 5.49357 8.9854L6.46963 8.42198L6.86897 8.65276L6.86871 9.11434ZM7.60069 5.33628C7.60069 5.11539 7.77939 4.93643 8.00003 4.93643C8.22067 4.93643 8.39963 5.11539 8.39963 5.33628V6.46287L8.00029 6.69314L7.60069 6.46287V5.33628ZM8.45954 8.26516L8.00029 8.53008L7.54052 8.2649V7.7343L8.00029 7.46886L8.45954 7.7343V8.26516ZM10.6532 9.53164C10.5427 9.72231 10.2981 9.78796 10.1072 9.67777L9.13135 9.11408V8.65303L9.53069 8.42224L10.5065 8.98566C10.6977 9.09611 10.7631 9.33992 10.6532 9.53164Z" fill="#101010"/>
</svg>
