<svg width="16" height="16" viewBox="0 0 16 16" fill="none" xmlns="http://www.w3.org/2000/svg">
<path d="M13.8438 0.369975C14.3371 -0.123325 15.1367 -0.123325 15.63 0.369975C16.1233 0.863274 16.1233 1.66288 15.63 2.15618L9.78621 8L15.63 13.8438C16.1233 14.3371 16.1233 15.1367 15.63 15.63C15.1367 16.1233 14.3371 16.1233 13.8438 15.63L8 9.78621L2.15618 15.63C1.66288 16.1233 0.863274 16.1233 0.369975 15.63C-0.123325 15.1367 -0.123325 14.3371 0.369975 13.8438L6.21379 8L0.369975 2.15618C-0.123325 1.66288 -0.123325 0.863274 0.369975 0.369975C0.863274 -0.123325 1.66288 -0.123325 2.15618 0.369975L8 6.21379L13.8438 0.369975Z" fill="#101010"/>
</svg>
