<svg width="22" height="22" viewBox="0 0 22 22" fill="none" xmlns="http://www.w3.org/2000/svg">
<path d="M20 10.75C20 5.64137 15.8586 1.5 10.75 1.5C5.64137 1.5 1.5 5.64137 1.5 10.75C1.5 15.8586 5.64137 20 10.75 20C15.8586 20 20 15.8586 20 10.75ZM21.5 10.75C21.5 16.6871 16.6871 21.5 10.75 21.5C4.81294 21.5 0 16.6871 0 10.75C1.93283e-07 4.81294 4.81294 1.93277e-07 10.75 0C16.6871 0 21.5 4.81294 21.5 10.75Z" fill="black"/>
<path d="M13.0481 14.1088L10.75 11.8107L8.45189 14.1088C8.15899 14.4017 7.68412 14.4017 7.39123 14.1088C7.09833 13.8159 7.09833 13.341 7.39123 13.0481L9.68932 10.75L7.39123 8.4519C7.09833 8.15901 7.09833 7.68414 7.39123 7.39124C7.68412 7.09835 8.15899 7.09835 8.45189 7.39124L10.75 9.68934L13.0481 7.39124C13.341 7.09835 13.8158 7.09835 14.1087 7.39124C14.4016 7.68414 14.4016 8.15901 14.1087 8.4519L11.8106 10.75L14.1087 13.0481C14.4016 13.341 14.4016 13.8159 14.1087 14.1088C13.8158 14.4017 13.341 14.4017 13.0481 14.1088Z" fill="black"/>
</svg>
