<svg width="32" height="32" viewBox="0 0 32 32" fill="none" xmlns="http://www.w3.org/2000/svg">
<path d="M15.9089 11.3476C16.2684 10.9284 16.8998 10.8801 17.3191 11.2395L21.9857 15.2395C22.2073 15.4295 22.3347 15.7068 22.3347 15.9986C22.3347 16.2904 22.2073 16.5677 21.9857 16.7577L17.3191 20.7577C16.8998 21.1171 16.2684 21.0688 15.9089 20.6497C15.5496 20.2304 15.5979 19.5989 16.017 19.2395L18.6316 16.9986H2.66803C2.11575 16.9986 1.66803 16.5509 1.66803 15.9986C1.66803 15.4463 2.11575 14.9986 2.66803 14.9986H18.6316L16.017 12.7577C15.5979 12.3983 15.5496 11.7668 15.9089 11.3476Z" fill="black"/>
<path d="M28.3334 21.3333V10.6666C28.3334 8.75305 28.3307 7.4174 28.1954 6.41012C28.0639 5.43188 27.8241 4.91384 27.4558 4.54553C27.0866 4.17627 26.5681 3.93623 25.5899 3.80465C24.5828 3.6692 23.2477 3.66663 21.3334 3.66663H20.0001C18.0865 3.66663 16.7519 3.6692 15.7449 3.80465C14.7668 3.93622 14.2483 4.17625 13.879 4.54553C13.5546 4.86991 13.3317 5.30801 13.1928 6.06376C13.0487 6.8479 13.0107 7.88115 13.0027 9.3385C12.9997 9.89068 12.5496 10.3362 11.9975 10.3333C11.4453 10.3302 10.9998 9.88022 11.0027 9.32809C11.0107 7.88602 11.0449 6.68383 11.2254 5.70178C11.4111 4.69121 11.7653 3.8311 12.4649 3.13147C13.2676 2.32885 14.2779 1.98302 15.478 1.82158C16.6493 1.66403 18.143 1.66663 20.0001 1.66663H21.3334C23.1911 1.66663 24.6854 1.66403 25.8569 1.82158C27.057 1.98303 28.0673 2.32887 28.8699 3.13147C29.6722 3.93375 30.0173 4.94455 30.1785 6.14449C30.3358 7.31587 30.3334 8.80956 30.3334 10.6666V21.3333C30.3334 23.1904 30.3358 24.684 30.1785 25.8554C30.0173 27.0554 29.6722 28.0662 28.8699 28.8685C28.1696 29.5688 27.3092 29.9224 26.2983 30.108C25.3161 30.2884 24.1139 30.3227 22.672 30.3307C22.1198 30.3336 21.6698 29.8881 21.6668 29.3359C21.6638 28.7837 22.1094 28.3337 22.6616 28.3307C24.1194 28.3226 25.1532 28.2846 25.9376 28.1406C26.6931 28.0018 27.1309 27.7793 27.4558 27.4544C27.8241 27.0861 28.0639 26.568 28.1954 25.5898C28.3307 24.5825 28.3334 23.2469 28.3334 21.3333ZM11.9975 21.6666C12.5496 21.6637 12.9997 22.1092 13.0027 22.6614C13.0107 24.1188 13.0487 25.152 13.1928 25.9362C13.3317 26.6919 13.5546 27.13 13.879 27.4544H13.8803C14.4271 28.002 15.2775 28.248 17.3634 28.3112C17.9154 28.3279 18.3501 28.7891 18.3334 29.3411C18.3166 29.8929 17.8553 30.3264 17.3035 30.3099C15.2487 30.2477 13.6274 30.0322 12.4649 28.8685C11.7653 28.1688 11.4111 27.3087 11.2254 26.2981C11.0449 25.3161 11.0107 24.1139 11.0027 22.6718C10.9998 22.1197 11.4453 21.6697 11.9975 21.6666Z" fill="black"/>
</svg>
