<svg width="87" height="32" viewBox="0 0 87 32" fill="none" xmlns="http://www.w3.org/2000/svg">
<path d="M3.7533 21.6667C3.79322 21.5415 3.80809 21.4096 3.79707 21.2787C3.78604 21.1478 3.74933 21.0203 3.68904 20.9035C3.62874 20.7868 3.54604 20.683 3.44565 20.5982C3.34527 20.5134 3.22916 20.4492 3.10397 20.4093C2.97877 20.3694 2.84694 20.3545 2.716 20.3656C2.58506 20.3766 2.45757 20.4133 2.34082 20.4736C2.22407 20.5339 2.12033 20.6166 2.03554 20.717C1.95075 20.8174 1.88656 20.9335 1.84663 21.0587C1.59197 21.8613 1.5653 22.7427 2.04663 23.512C2.65063 24.4773 3.7893 24.8547 4.91863 24.9627C5.18041 24.9838 5.44 24.9011 5.64131 24.7324C5.84262 24.5638 5.9695 24.3227 5.99454 24.0612C6.01958 23.7998 5.94077 23.539 5.77513 23.3352C5.6095 23.1314 5.37033 23.0009 5.1093 22.972C4.18397 22.884 3.8453 22.616 3.74263 22.452C3.67597 22.3453 3.60663 22.128 3.7533 21.6667ZM8.64663 24.6787C9.37142 24.5326 10.0898 24.3564 10.8 24.1507C10.1075 23.7075 9.47406 23.1784 8.91463 22.576C8.69063 22.6284 8.47197 22.6751 8.25863 22.716C8.1217 22.7431 7.99197 22.7986 7.87778 22.879C7.7636 22.9593 7.6675 23.0626 7.59566 23.1823C7.52382 23.302 7.47783 23.4354 7.46066 23.5739C7.44349 23.7125 7.45552 23.8531 7.49597 23.9867C7.71463 24.2213 7.94352 24.4458 8.18263 24.66C8.3293 24.7013 8.48797 24.7093 8.64663 24.6787Z" fill="#101010"/>
<path fill-rule="evenodd" clip-rule="evenodd" d="M25.4427 13.9253C24.5786 14.7036 23.669 15.4297 22.7187 16.1C22.6117 16.1762 22.5208 16.2727 22.4511 16.384C22.3814 16.4953 22.3343 16.6192 22.3125 16.7487C22.2907 16.8782 22.2946 17.0108 22.3241 17.1388C22.3535 17.2667 22.4078 17.3877 22.484 17.4947C22.5602 17.6016 22.6567 17.6926 22.768 17.7623C22.8793 17.832 23.0032 17.8791 23.1327 17.9008C23.2622 17.9226 23.3948 17.9187 23.5228 17.8893C23.6508 17.8598 23.7717 17.8055 23.8787 17.7293C24.5116 17.2787 25.1049 16.8271 25.6587 16.3747C25.6906 15.5519 25.618 14.7285 25.4427 13.924M10.8 24.1507C11.6507 23.9062 12.532 23.6129 13.444 23.2707C13.6924 23.1775 13.8937 22.9894 14.0034 22.7479C14.1132 22.5063 14.1225 22.2311 14.0293 21.9827C13.9362 21.7342 13.7481 21.533 13.5066 21.4232C13.265 21.3135 12.9898 21.3042 12.7413 21.3973C11.4928 21.8732 10.2145 22.2669 8.91467 22.576C9.47201 23.176 10.1067 23.7067 10.8 24.1507ZM21 19.604C21.2225 19.4654 21.3816 19.245 21.4432 18.9903C21.5048 18.7355 21.4639 18.4667 21.3293 18.2418C21.1948 18.0169 20.9773 17.8538 20.7237 17.7876C20.4701 17.7215 20.2006 17.7575 19.9733 17.888C18.6366 18.6875 17.2606 19.4195 15.8507 20.0813C15.6106 20.1941 15.4251 20.3977 15.3351 20.6473C15.2451 20.8968 15.2579 21.1719 15.3707 21.412C15.4835 21.6521 15.687 21.8376 15.9366 21.9276C16.1861 22.0176 16.4612 22.0048 16.7013 21.892C18.171 21.201 19.6056 20.4378 21 19.6053" fill="#101010"/>
<path d="M6.33335 16C6.33193 13.6159 7.21159 11.3154 8.8033 9.54044C10.395 7.76551 12.5865 6.64139 14.9567 6.38406C17.3268 6.12674 19.7085 6.75436 21.644 8.14635C23.5796 9.53833 24.9324 11.5965 25.4427 13.9253C25.7111 13.6818 25.9622 13.4418 26.196 13.2053C26.3336 13.0665 26.5088 12.9711 26.7001 12.9308C26.8913 12.8905 27.0901 12.9072 27.272 12.9787C26.8918 11.5576 26.2447 10.2219 25.3654 9.04267C25.6261 9.01189 25.8643 8.87979 26.0285 8.67489C26.1927 8.47 26.2697 8.20874 26.2429 7.94755C26.2161 7.68635 26.0877 7.44617 25.8853 7.27886C25.683 7.11155 25.4229 7.03055 25.1614 7.05333C24.7018 7.096 24.2214 7.16266 23.72 7.25333C21.9496 5.6923 19.7472 4.70501 17.4039 4.42183C15.0606 4.13865 12.6865 4.57292 10.5952 5.66727C8.50383 6.76162 6.79361 8.46458 5.69038 10.5513C4.58715 12.6379 4.1428 15.0102 4.41602 17.3547C3.96802 17.8027 3.56935 18.2449 3.22002 18.6813C3.05826 18.8889 2.98485 19.1519 3.01568 19.4132C3.04652 19.6745 3.17913 19.9132 3.38475 20.0774C3.59037 20.2416 3.85244 20.3182 4.11412 20.2905C4.37581 20.2627 4.61603 20.133 4.78268 19.9293L4.94268 19.7333C5.47903 21.3178 6.34983 22.7683 7.49602 23.9867C7.45557 23.8531 7.44354 23.7125 7.46071 23.5739C7.47788 23.4354 7.52386 23.302 7.59571 23.1823C7.66755 23.0626 7.76365 22.9593 7.87783 22.879C7.99202 22.7987 8.12175 22.7431 8.25868 22.716C8.47202 22.6751 8.69068 22.6284 8.91468 22.576C7.25197 20.7903 6.32934 18.4399 6.33335 16ZM16 27.6667C17.6467 27.6667 19.2748 27.3182 20.7771 26.644C22.2795 25.9699 23.6221 24.9853 24.7167 23.7551C25.8112 22.5248 26.633 21.0768 27.1279 19.5063C27.6228 17.9357 27.7796 16.2782 27.588 14.6427C27.0213 15.2107 26.3747 15.792 25.6587 16.3747C25.593 18.0749 25.0796 19.7276 24.1706 21.1659C23.2615 22.6042 21.9889 23.7771 20.4814 24.566C18.9739 25.3549 17.2848 25.732 15.5849 25.6591C13.885 25.5861 12.2344 25.0658 10.8 24.1507C10.0498 24.3667 9.33202 24.5427 8.64668 24.6787C8.49269 24.7089 8.33374 24.7025 8.18268 24.66C10.3244 26.5986 13.1112 27.6704 16 27.6667Z" fill="#101010"/>
<path d="M26.196 13.2053C25.9511 13.4518 25.6999 13.6919 25.4426 13.9253C25.6179 14.7294 25.6905 15.5524 25.6586 16.3747C26.3309 15.8302 26.9749 15.2517 27.588 14.6413C27.5219 14.0804 27.4163 13.5248 27.272 12.9787C27.0901 12.9072 26.8912 12.8905 26.7 12.9308C26.5088 12.9711 26.3335 13.0665 26.196 13.2053ZM27.916 7.17199C27.7881 7.1417 27.6556 7.13688 27.5259 7.15781C27.3962 7.17874 27.272 7.22501 27.1601 7.29397C27.0483 7.36293 26.9512 7.45324 26.8743 7.55974C26.7974 7.66624 26.7423 7.78684 26.712 7.91466C26.6817 8.04248 26.6768 8.17501 26.6978 8.3047C26.7187 8.43438 26.765 8.55867 26.8339 8.67047C26.9029 8.78227 26.9932 8.8794 27.0997 8.9563C27.2062 9.0332 27.3268 9.08837 27.4546 9.11866C27.98 9.24266 28.1826 9.42799 28.2573 9.54799C28.3413 9.68266 28.4346 10.036 28.048 10.812C27.9297 11.0495 27.9106 11.3242 27.9948 11.5757C28.0791 11.8273 28.2598 12.035 28.4973 12.1533C28.7347 12.2716 29.0095 12.2907 29.261 12.2065C29.5126 12.1222 29.7203 11.9415 29.8386 11.704C30.3426 10.6933 30.5893 9.50399 29.9533 8.48666C29.4946 7.75333 28.7226 7.36266 27.916 7.17199Z" fill="#101010"/>
<path d="M27.616 14.6133C27.7326 14.4957 27.8181 14.351 27.865 14.1922C27.9119 14.0334 27.9185 13.8654 27.8844 13.7033C27.8503 13.5413 27.7765 13.3902 27.6696 13.2637C27.5627 13.1372 27.4261 13.0393 27.272 12.9787C27.4169 13.5191 27.5222 14.0738 27.588 14.6427L27.616 14.6133Z" fill="#101010"/>
<path d="M41.692 22.5V9.9H44.032V20.52H50.62V22.5H41.692ZM56.4835 22.626C55.4995 22.626 54.6235 22.416 53.8555 21.996C53.0875 21.564 52.4815 20.976 52.0375 20.232C51.5935 19.488 51.3715 18.642 51.3715 17.694C51.3715 16.734 51.5935 15.888 52.0375 15.156C52.4815 14.412 53.0875 13.83 53.8555 13.41C54.6235 12.99 55.4995 12.78 56.4835 12.78C57.4795 12.78 58.3615 12.99 59.1295 13.41C59.9095 13.83 60.5155 14.406 60.9475 15.138C61.3915 15.87 61.6135 16.722 61.6135 17.694C61.6135 18.642 61.3915 19.488 60.9475 20.232C60.5155 20.976 59.9095 21.564 59.1295 21.996C58.3615 22.416 57.4795 22.626 56.4835 22.626ZM56.4835 20.7C57.0355 20.7 57.5275 20.58 57.9595 20.34C58.3915 20.1 58.7275 19.752 58.9675 19.296C59.2195 18.84 59.3455 18.306 59.3455 17.694C59.3455 17.07 59.2195 16.536 58.9675 16.092C58.7275 15.636 58.3915 15.288 57.9595 15.048C57.5275 14.808 57.0415 14.688 56.5015 14.688C55.9495 14.688 55.4575 14.808 55.0255 15.048C54.6055 15.288 54.2695 15.636 54.0175 16.092C53.7655 16.536 53.6395 17.07 53.6395 17.694C53.6395 18.306 53.7655 18.84 54.0175 19.296C54.2695 19.752 54.6055 20.1 55.0255 20.34C55.4575 20.58 55.9435 20.7 56.4835 20.7ZM68.1211 26.118C67.2331 26.118 66.3631 25.998 65.5111 25.758C64.6711 25.53 63.9811 25.194 63.4411 24.75L64.4491 23.058C64.8691 23.406 65.3971 23.682 66.0331 23.886C66.6811 24.102 67.3351 24.21 67.9951 24.21C69.0511 24.21 69.8251 23.964 70.3171 23.472C70.8091 22.992 71.0551 22.266 71.0551 21.294V19.584L71.2351 17.406L71.1631 15.228V12.888H73.3051V21.042C73.3051 22.782 72.8611 24.06 71.9731 24.876C71.0851 25.704 69.8011 26.118 68.1211 26.118ZM67.8331 22.068C66.9211 22.068 66.0931 21.876 65.3491 21.492C64.6171 21.096 64.0351 20.55 63.6031 19.854C63.1831 19.158 62.9731 18.342 62.9731 17.406C62.9731 16.482 63.1831 15.672 63.6031 14.976C64.0351 14.28 64.6171 13.74 65.3491 13.356C66.0931 12.972 66.9211 12.78 67.8331 12.78C68.6491 12.78 69.3811 12.942 70.0291 13.266C70.6771 13.59 71.1931 14.094 71.5771 14.778C71.9731 15.462 72.1711 16.338 72.1711 17.406C72.1711 18.474 71.9731 19.356 71.5771 20.052C71.1931 20.736 70.6771 21.246 70.0291 21.582C69.3811 21.906 68.6491 22.068 67.8331 22.068ZM68.1751 20.16C68.7391 20.16 69.2431 20.046 69.6871 19.818C70.1311 19.578 70.4731 19.254 70.7131 18.846C70.9651 18.426 71.0911 17.946 71.0911 17.406C71.0911 16.866 70.9651 16.392 70.7131 15.984C70.4731 15.564 70.1311 15.246 69.6871 15.03C69.2431 14.802 68.7391 14.688 68.1751 14.688C67.6111 14.688 67.1011 14.802 66.6451 15.03C66.2011 15.246 65.8531 15.564 65.6011 15.984C65.3611 16.392 65.2411 16.866 65.2411 17.406C65.2411 17.946 65.3611 18.426 65.6011 18.846C65.8531 19.254 66.2011 19.578 66.6451 19.818C67.1011 20.046 67.6111 20.16 68.1751 20.16ZM80.5831 22.626C79.5991 22.626 78.7231 22.416 77.9551 21.996C77.1871 21.564 76.5811 20.976 76.1371 20.232C75.6931 19.488 75.4711 18.642 75.4711 17.694C75.4711 16.734 75.6931 15.888 76.1371 15.156C76.5811 14.412 77.1871 13.83 77.9551 13.41C78.7231 12.99 79.5991 12.78 80.5831 12.78C81.5791 12.78 82.4611 12.99 83.2291 13.41C84.0091 13.83 84.6151 14.406 85.0471 15.138C85.4911 15.87 85.7131 16.722 85.7131 17.694C85.7131 18.642 85.4911 19.488 85.0471 20.232C84.6151 20.976 84.0091 21.564 83.2291 21.996C82.4611 22.416 81.5791 22.626 80.5831 22.626ZM80.5831 20.7C81.1351 20.7 81.6271 20.58 82.0591 20.34C82.4911 20.1 82.8271 19.752 83.0671 19.296C83.3191 18.84 83.4451 18.306 83.4451 17.694C83.4451 17.07 83.3191 16.536 83.0671 16.092C82.8271 15.636 82.4911 15.288 82.0591 15.048C81.6271 14.808 81.1411 14.688 80.6011 14.688C80.0491 14.688 79.5571 14.808 79.1251 15.048C78.7051 15.288 78.3691 15.636 78.1171 16.092C77.8651 16.536 77.7391 17.07 77.7391 17.694C77.7391 18.306 77.8651 18.84 78.1171 19.296C78.3691 19.752 78.7051 20.1 79.1251 20.34C79.5571 20.58 80.0431 20.7 80.5831 20.7Z" fill="#101010"/>
</svg>
