<svg width="140" height="140" viewBox="0 0 140 140" fill="none" xmlns="http://www.w3.org/2000/svg">
<path d="M16.4207 94.7917C16.5953 94.244 16.6604 93.6672 16.6121 93.0943C16.5639 92.5215 16.4033 91.9637 16.1395 91.4529C15.8757 90.9421 15.5139 90.4883 15.0747 90.1173C14.6355 89.7463 14.1275 89.4655 13.5798 89.2908C13.0321 89.1162 12.4553 89.0511 11.8825 89.0994C11.3096 89.1476 10.7519 89.3082 10.2411 89.572C9.73026 89.8358 9.27642 90.1976 8.90545 90.6368C8.53448 91.076 8.25365 91.584 8.07899 92.1317C6.96483 95.6433 6.84816 99.4992 8.95399 102.865C11.5965 107.088 16.5782 108.739 21.519 109.212C22.6643 109.304 23.7999 108.942 24.6807 108.204C25.5614 107.467 26.1165 106.412 26.2261 105.268C26.3356 104.124 25.9908 102.983 25.2662 102.092C24.5415 101.2 23.4952 100.629 22.3532 100.503C18.3048 100.118 16.8232 98.945 16.374 98.2275C16.0823 97.7608 15.779 96.81 16.4207 94.7917ZM37.829 107.969C40.9999 107.33 44.1429 106.559 47.2498 105.659C44.2205 103.72 41.449 101.406 39.0015 98.77C38.0215 98.9995 37.0648 99.2036 36.1315 99.3825C35.5324 99.5013 34.9648 99.7441 34.4653 100.095C33.9657 100.447 33.5453 100.899 33.231 101.423C32.9167 101.946 32.7155 102.53 32.6404 103.136C32.5652 103.742 32.6179 104.357 32.7948 104.942C33.7515 105.968 34.7529 106.95 35.799 107.888C36.4407 108.068 37.1348 108.103 37.829 107.969Z" fill="#101010"/>
<path fill-rule="evenodd" clip-rule="evenodd" d="M111.311 60.9233C107.531 64.3281 103.552 67.5051 99.394 70.4375C98.9259 70.7707 98.5281 71.1929 98.2232 71.6798C97.9183 72.1668 97.7123 72.7091 97.6169 73.2757C97.5216 73.8423 97.5388 74.4221 97.6675 74.982C97.7963 75.542 98.0341 76.0711 98.3673 76.5392C98.7005 77.0072 99.1227 77.405 99.6097 77.7099C100.097 78.0148 100.639 78.2208 101.206 78.3162C101.772 78.4115 102.352 78.3943 102.912 78.2656C103.472 78.1368 104.001 77.899 104.469 77.5658C107.238 75.5941 109.834 73.6186 112.256 71.6391C112.396 68.0397 112.079 64.437 111.311 60.9175M47.2498 105.659C50.9715 104.59 54.8273 103.306 58.8173 101.809C59.9041 101.401 60.7845 100.579 61.2648 99.522C61.745 98.4653 61.7858 97.261 61.3781 96.1741C60.9705 95.0873 60.1478 94.2069 59.091 93.7267C58.0342 93.2464 56.83 93.2057 55.7431 93.6133C50.2809 95.6951 44.6884 97.4176 39.0015 98.77C41.4398 101.395 44.2165 103.717 47.2498 105.659ZM91.8748 85.7675C92.848 85.1611 93.5443 84.1969 93.8138 83.0824C94.0833 81.9678 93.9044 80.792 93.3157 79.808C92.7269 78.824 91.7754 78.1105 90.6659 77.821C89.5564 77.5314 88.3776 77.6891 87.3831 78.26C81.5348 81.7576 75.5151 84.9602 69.3465 87.8558C68.296 88.3493 67.4846 89.2399 67.0908 90.3317C66.6969 91.4235 66.7529 92.627 67.2465 93.6775C67.74 94.728 68.6306 95.5394 69.7224 95.9332C70.8141 96.327 72.0177 96.271 73.0681 95.7775C79.4979 92.7543 85.7744 89.4156 91.8748 85.7733" fill="#101010"/>
<path d="M27.7085 70C27.7023 59.5696 31.5508 49.5048 38.5146 41.7394C45.4783 33.9741 55.066 29.0561 65.4355 27.9303C75.805 26.8045 86.2247 29.5504 94.6927 35.6403C103.161 41.7302 109.079 50.7346 111.312 60.9233C112.486 59.8578 113.585 58.8078 114.608 57.7733C115.21 57.1661 115.976 56.7486 116.813 56.5724C117.65 56.3961 118.519 56.4689 119.315 56.7817C117.652 50.5647 114.821 44.7208 110.974 39.5617C112.114 39.427 113.156 38.8491 113.875 37.9527C114.593 37.0562 114.93 35.9133 114.813 34.7705C114.696 33.6278 114.134 32.577 113.248 31.845C112.363 31.1131 111.225 30.7586 110.081 30.8583C108.07 31.045 105.969 31.3367 103.775 31.7333C96.0295 24.9038 86.3943 20.5844 76.1423 19.3455C65.8903 18.1066 55.5036 20.0065 46.354 24.7943C37.2044 29.5821 29.7222 37.0326 24.8955 46.1618C20.0689 55.291 18.1249 65.6695 19.3202 75.9267C17.3602 77.8867 15.616 79.8214 14.0877 81.7308C13.38 82.6389 13.0588 83.7894 13.1937 84.9327C13.3286 86.0761 13.9088 87.1202 14.8084 87.8386C15.708 88.5571 16.8545 88.892 17.9994 88.7707C19.1443 88.6495 20.1952 88.0818 20.9244 87.1908L21.6244 86.3333C23.9709 93.2652 27.7806 99.6114 32.7952 104.942C32.6182 104.357 32.5656 103.742 32.6407 103.136C32.7158 102.53 32.917 101.946 33.2313 101.423C33.5456 100.899 33.9661 100.447 34.4656 100.095C34.9652 99.7441 35.5328 99.5012 36.1319 99.3825C37.0652 99.2036 38.0219 98.9994 39.0019 98.77C31.7275 90.9577 27.691 80.6746 27.7085 70ZM70.0002 121.042C77.2045 121.042 84.3272 119.517 90.9 116.568C97.4728 113.618 103.347 109.311 108.136 103.928C112.924 98.5462 116.52 92.2111 118.685 85.3399C120.85 78.4687 121.536 71.217 120.698 64.0617C118.219 66.5467 115.389 69.09 112.257 71.6392C111.969 79.0776 109.724 86.3084 105.746 92.6009C101.769 98.8934 96.2017 104.025 89.6063 107.476C83.0109 110.928 75.6213 112.577 68.1841 112.258C60.747 111.939 53.5258 109.663 47.2502 105.659C43.968 106.604 40.8277 107.374 37.8294 107.969C37.1557 108.102 36.4602 108.074 35.7994 107.887C45.1696 116.369 57.3616 121.058 70.0002 121.042Z" fill="#101010"/>
<path d="M114.607 57.7734C113.536 58.8518 112.437 59.9022 111.312 60.9234C112.078 64.441 112.396 68.0417 112.257 71.6392C115.198 69.2572 118.015 66.7261 120.697 64.0559C120.408 61.6016 119.946 59.1709 119.315 56.7817C118.519 56.4689 117.649 56.3962 116.813 56.5724C115.976 56.7486 115.209 57.1662 114.607 57.7734ZM122.132 31.3775C121.573 31.245 120.993 31.2239 120.426 31.3155C119.859 31.407 119.315 31.6095 118.826 31.9112C118.337 32.2129 117.912 32.608 117.575 33.0739C117.239 33.5398 116.997 34.0675 116.865 34.6267C116.732 35.1859 116.711 35.7657 116.803 36.3331C116.894 36.9005 117.097 37.4442 117.399 37.9334C117.7 38.4225 118.095 38.8474 118.561 39.1839C119.027 39.5203 119.555 39.7617 120.114 39.8942C122.412 40.4367 123.299 41.2475 123.626 41.7725C123.993 42.3617 124.402 43.9075 122.71 47.3025C122.192 48.3414 122.109 49.5433 122.477 50.6438C122.846 51.7444 123.637 52.6534 124.676 53.1709C125.715 53.6884 126.916 53.772 128.017 53.4033C129.118 53.0346 130.027 52.2439 130.544 51.205C132.749 46.7834 133.828 41.58 131.046 37.1292C129.039 33.9209 125.662 32.2117 122.132 31.3775Z" fill="#101010"/>
<path d="M120.82 63.9333C121.33 63.4189 121.704 62.7857 121.909 62.0908C122.114 61.3959 122.144 60.661 121.994 59.952C121.845 59.243 121.522 58.5822 121.055 58.0288C120.587 57.4755 119.989 57.0469 119.315 56.7817C119.949 59.1461 120.41 61.5728 120.697 64.0617L120.82 63.9333Z" fill="#101010"/>
</svg>
