<svg width="32" height="32" viewBox="0 0 32 32" fill="none" xmlns="http://www.w3.org/2000/svg">
<path fill-rule="evenodd" clip-rule="evenodd" d="M24.5373 7.5107C23.4284 6.39461 22.1091 5.50962 20.6558 4.90701C19.2024 4.30439 17.644 3.99611 16.0707 4.00004C9.47333 4.00004 4.10267 9.36937 4.1 15.9694C4.1 18.0787 4.65067 20.1374 5.69733 21.9534L4 28.1547L10.3453 26.4894C12.1009 27.4438 14.0671 27.9448 16.0653 27.9467H16.0707C22.6667 27.9467 28.0373 22.5774 28.04 15.9774C28.0442 14.4047 27.7369 12.8468 27.1357 11.3936C26.5345 9.94042 25.6514 8.62071 24.5373 7.5107ZM16.0707 25.9267H16.0667C14.2847 25.9266 12.5356 25.4472 11.0027 24.5387L10.64 24.3227L6.87467 25.3107L7.87867 21.64L7.64267 21.264C6.64652 19.6779 6.11912 17.8424 6.12133 15.9694C6.124 10.484 10.5867 6.02137 16.0747 6.02137C17.3818 6.01751 18.6767 6.27342 19.8841 6.77423C21.0915 7.27504 22.1873 8.01078 23.108 8.9387C24.0342 9.86143 24.7683 10.9586 25.2679 12.1667C25.7674 13.3748 26.0226 14.67 26.0187 15.9774C26.016 21.4627 21.5533 25.9267 16.0707 25.9267ZM21.528 18.4747C21.228 18.324 19.7587 17.6014 19.484 17.5014C19.2093 17.4014 19.012 17.352 18.812 17.6507C18.612 17.9494 18.0387 18.6227 17.864 18.8227C17.6893 19.0227 17.5147 19.0467 17.216 18.8974C16.9173 18.748 15.9533 18.432 14.8107 17.4134C13.9213 16.62 13.3213 15.6414 13.1467 15.3414C12.972 15.0414 13.128 14.88 13.2787 14.7307C13.4133 14.5974 13.5773 14.3814 13.7267 14.2067C13.876 14.032 13.9253 13.908 14.0253 13.708C14.1253 13.508 14.076 13.3334 14 13.184C13.9253 13.0334 13.3267 11.5614 13.0773 10.9627C12.836 10.3827 12.5893 10.46 12.4053 10.452C12.2148 10.4444 12.0241 10.4408 11.8333 10.4414C11.6817 10.4456 11.5326 10.4808 11.3952 10.5451C11.2578 10.6093 11.1351 10.7011 11.0347 10.8147C10.76 11.1147 9.988 11.8374 9.988 13.3094C9.988 14.7814 11.06 16.204 11.2093 16.404C11.3587 16.604 13.3187 19.624 16.3187 20.92C17.0333 21.228 17.5907 21.412 18.024 21.5507C18.74 21.7787 19.392 21.7454 19.908 21.6694C20.4827 21.584 21.6773 20.9467 21.9267 20.248C22.176 19.5494 22.176 18.9507 22.1013 18.8254C22.0267 18.7 21.8253 18.624 21.528 18.4747Z" fill="#101010"/>
</svg>
